<svg width="246" height="60" viewBox="0 0 246 60" fill="none" xmlns="http://www.w3.org/2000/svg">
<path d="M89.9609 42.1289C88.6589 43.2487 87.2005 44.1081 85.5859 44.707C83.9714 45.306 82.2982 45.6055 80.5664 45.6055C79.2383 45.6055 77.9557 45.4297 76.7188 45.0781C75.4948 44.7396 74.3424 44.2578 73.2617 43.6328C72.194 42.9948 71.2174 42.2331 70.332 41.3477C69.4466 40.4622 68.6849 39.4857 68.0469 38.418C67.4219 37.3372 66.9336 36.1849 66.582 34.9609C66.2435 33.724 66.0742 32.4414 66.0742 31.1133C66.0742 29.7852 66.2435 28.5026 66.582 27.2656C66.9336 26.0286 67.4219 24.8763 68.0469 23.8086C68.6849 22.7279 69.4466 21.7448 70.332 20.8594C71.2174 19.974 72.194 19.2188 73.2617 18.5938C74.3424 17.9557 75.4948 17.4674 76.7188 17.1289C77.9557 16.7773 79.2383 16.6016 80.5664 16.6016C82.2982 16.6016 83.9714 16.901 85.5859 17.5C87.2005 18.0859 88.6589 18.9453 89.9609 20.0781L86.9922 24.9609C86.1719 24.0755 85.2018 23.3984 84.082 22.9297C82.9622 22.4479 81.7904 22.207 80.5664 22.207C79.3294 22.207 78.1706 22.4414 77.0898 22.9102C76.0091 23.3789 75.0651 24.0169 74.2578 24.8242C73.4505 25.6185 72.8125 26.5625 72.3438 27.6562C71.875 28.737 71.6406 29.8893 71.6406 31.1133C71.6406 32.3372 71.875 33.4896 72.3438 34.5703C72.8125 35.638 73.4505 36.5755 74.2578 37.3828C75.0651 38.1901 76.0091 38.8281 77.0898 39.2969C78.1706 39.7656 79.3294 40 80.5664 40C81.7904 40 82.9622 39.7656 84.082 39.2969C85.2018 38.8151 86.1719 38.1315 86.9922 37.2461L89.9609 42.1289ZM97.9483 45H92.6162V15.7617H97.9483V25C98.5863 24.5182 99.2439 24.1797 99.9209 23.9844C100.598 23.776 101.288 23.6719 101.991 23.6719C103.28 23.6719 104.491 23.9193 105.624 24.4141C106.757 24.8958 107.74 25.5664 108.573 26.4258C109.42 27.2721 110.084 28.2682 110.565 29.4141C111.06 30.5469 111.308 31.7578 111.308 33.0469V45H105.937V33.0469H105.976C105.976 32.5 105.871 31.9857 105.663 31.5039C105.455 31.0091 105.168 30.5794 104.804 30.2148C104.439 29.8503 104.016 29.5638 103.534 29.3555C103.052 29.1471 102.538 29.043 101.991 29.043C101.431 29.043 100.904 29.1471 100.409 29.3555C99.9144 29.5638 99.4847 29.8503 99.1202 30.2148C98.7556 30.5794 98.4691 31.0091 98.2608 31.5039C98.0524 31.9857 97.9483 32.5 97.9483 33.0469V45ZM135.33 45H134.041L131.971 42.1289C131.463 42.5846 130.923 43.0143 130.35 43.418C129.79 43.8086 129.197 44.1536 128.572 44.4531C127.947 44.7396 127.303 44.9674 126.639 45.1367C125.988 45.306 125.324 45.3906 124.647 45.3906C123.175 45.3906 121.788 45.1432 120.486 44.6484C119.197 44.1536 118.065 43.4375 117.088 42.5C116.124 41.5495 115.363 40.3906 114.803 39.0234C114.243 37.6562 113.963 36.1003 113.963 34.3555C113.963 32.7279 114.243 31.237 114.803 29.8828C115.363 28.5156 116.124 27.3438 117.088 26.3672C118.065 25.3906 119.197 24.6354 120.486 24.1016C121.788 23.5547 123.175 23.2812 124.647 23.2812C125.324 23.2812 125.994 23.3659 126.658 23.5352C127.322 23.7044 127.967 23.9388 128.592 24.2383C129.217 24.5378 129.809 24.8893 130.369 25.293C130.942 25.6966 131.476 26.1328 131.971 26.6016L134.041 24.1211H135.33V45ZM129.959 34.3555C129.959 33.6263 129.816 32.9232 129.529 32.2461C129.256 31.556 128.878 30.9505 128.397 30.4297C127.915 29.8958 127.348 29.4727 126.697 29.1602C126.059 28.8346 125.376 28.6719 124.647 28.6719C123.917 28.6719 123.227 28.7956 122.576 29.043C121.938 29.2904 121.378 29.6549 120.897 30.1367C120.428 30.6185 120.057 31.2174 119.783 31.9336C119.51 32.6367 119.373 33.444 119.373 34.3555C119.373 35.2669 119.51 36.0807 119.783 36.7969C120.057 37.5 120.428 38.0924 120.897 38.5742C121.378 39.056 121.938 39.4206 122.576 39.668C123.227 39.9154 123.917 40.0391 124.647 40.0391C125.376 40.0391 126.059 39.8828 126.697 39.5703C127.348 39.2448 127.915 38.8216 128.397 38.3008C128.878 37.7669 129.256 37.1615 129.529 36.4844C129.816 35.7943 129.959 35.0846 129.959 34.3555ZM149.86 45C148.571 45 147.36 44.7591 146.228 44.2773C145.095 43.7826 144.099 43.112 143.239 42.2656C142.393 41.4062 141.722 40.4102 141.228 39.2773C140.746 38.1445 140.505 36.9336 140.505 35.6445V29.4336H137.907V24.1211H140.505V15.7617H145.817V24.1211H153.903V29.4336H145.817V35.6445C145.817 36.2044 145.922 36.7318 146.13 37.2266C146.338 37.7083 146.625 38.1315 146.989 38.4961C147.354 38.8607 147.784 39.1536 148.278 39.375C148.773 39.5833 149.301 39.6875 149.86 39.6875H153.903V45H149.86ZM179.723 42.168C178.421 43.2747 176.969 44.1276 175.367 44.7266C173.766 45.3125 172.099 45.6055 170.367 45.6055C169.039 45.6055 167.757 45.4297 166.52 45.0781C165.296 44.7396 164.15 44.2578 163.082 43.6328C162.014 42.9948 161.038 42.2396 160.152 41.3672C159.267 40.4818 158.512 39.5052 157.887 38.4375C157.262 37.3568 156.774 36.1979 156.422 34.9609C156.083 33.724 155.914 32.4414 155.914 31.1133C155.914 29.7852 156.083 28.5091 156.422 27.2852C156.774 26.0612 157.262 24.9154 157.887 23.8477C158.512 22.7669 159.267 21.7904 160.152 20.918C161.038 20.0326 162.014 19.2773 163.082 18.6523C164.15 18.0273 165.296 17.5456 166.52 17.207C167.757 16.8555 169.039 16.6797 170.367 16.6797C172.099 16.6797 173.766 16.9792 175.367 17.5781C176.969 18.1641 178.421 19.0104 179.723 20.1172L176.793 25C175.947 24.1406 174.97 23.4701 173.863 22.9883C172.757 22.4935 171.591 22.2461 170.367 22.2461C169.143 22.2461 167.991 22.4805 166.91 22.9492C165.843 23.418 164.905 24.056 164.098 24.8633C163.291 25.6576 162.652 26.5951 162.184 27.6758C161.715 28.7435 161.481 29.8893 161.481 31.1133C161.481 32.3503 161.715 33.5091 162.184 34.5898C162.652 35.6706 163.291 36.6146 164.098 37.4219C164.905 38.2292 165.843 38.8672 166.91 39.3359C167.991 39.8047 169.143 40.0391 170.367 40.0391C171.07 40.0391 171.754 39.9544 172.418 39.7852C173.082 39.6159 173.714 39.3815 174.313 39.082V31.1133H179.723V42.168ZM203.687 45H202.398L200.327 42.1289C199.82 42.5846 199.279 43.0143 198.706 43.418C198.146 43.8086 197.554 44.1536 196.929 44.4531C196.304 44.7396 195.659 44.9674 194.995 45.1367C194.344 45.306 193.68 45.3906 193.003 45.3906C191.532 45.3906 190.145 45.1432 188.843 44.6484C187.554 44.1536 186.421 43.4375 185.445 42.5C184.481 41.5495 183.719 40.3906 183.159 39.0234C182.599 37.6562 182.32 36.1003 182.32 34.3555C182.32 32.7279 182.599 31.237 183.159 29.8828C183.719 28.5156 184.481 27.3438 185.445 26.3672C186.421 25.3906 187.554 24.6354 188.843 24.1016C190.145 23.5547 191.532 23.2812 193.003 23.2812C193.68 23.2812 194.351 23.3659 195.015 23.5352C195.679 23.7044 196.323 23.9388 196.948 24.2383C197.573 24.5378 198.166 24.8893 198.726 25.293C199.299 25.6966 199.833 26.1328 200.327 26.6016L202.398 24.1211H203.687V45ZM198.316 34.3555C198.316 33.6263 198.172 32.9232 197.886 32.2461C197.613 31.556 197.235 30.9505 196.753 30.4297C196.271 29.8958 195.705 29.4727 195.054 29.1602C194.416 28.8346 193.732 28.6719 193.003 28.6719C192.274 28.6719 191.584 28.7956 190.933 29.043C190.295 29.2904 189.735 29.6549 189.253 30.1367C188.784 30.6185 188.413 31.2174 188.14 31.9336C187.866 32.6367 187.73 33.444 187.73 34.3555C187.73 35.2669 187.866 36.0807 188.14 36.7969C188.413 37.5 188.784 38.0924 189.253 38.5742C189.735 39.056 190.295 39.4206 190.933 39.668C191.584 39.9154 192.274 40.0391 193.003 40.0391C193.732 40.0391 194.416 39.8828 195.054 39.5703C195.705 39.2448 196.271 38.8216 196.753 38.3008C197.235 37.7669 197.613 37.1615 197.886 36.4844C198.172 35.7943 198.316 35.0846 198.316 34.3555ZM234.33 45H229.018V31.7188C229.018 31.3542 228.946 31.0091 228.803 30.6836C228.673 30.3581 228.484 30.0716 228.237 29.8242C227.989 29.5768 227.703 29.388 227.377 29.2578C227.052 29.1146 226.707 29.043 226.342 29.043C225.977 29.043 225.632 29.1146 225.307 29.2578C224.994 29.388 224.714 29.5768 224.467 29.8242C224.233 30.0716 224.044 30.3581 223.901 30.6836C223.77 31.0091 223.705 31.3542 223.705 31.7188V45H218.373V31.7188C218.373 31.3542 218.302 31.0091 218.158 30.6836C218.028 30.3581 217.839 30.0716 217.592 29.8242C217.345 29.5768 217.058 29.388 216.733 29.2578C216.407 29.1146 216.062 29.043 215.697 29.043C215.333 29.043 214.988 29.1146 214.662 29.2578C214.35 29.388 214.07 29.5768 213.822 29.8242C213.588 30.0716 213.399 30.3581 213.256 30.6836C213.126 31.0091 213.061 31.3542 213.061 31.7188V45H207.729V24.082H209.018L210.463 25.6836C211.205 25.0586 212.019 24.5768 212.905 24.2383C213.803 23.8867 214.734 23.7109 215.697 23.7109C216.674 23.7109 217.625 23.8932 218.549 24.2578C219.487 24.6224 220.307 25.2539 221.01 26.1523C221.336 25.7096 221.707 25.332 222.123 25.0195C222.54 24.707 222.976 24.4531 223.432 24.2578C223.901 24.0625 224.382 23.9258 224.877 23.8477C225.372 23.7565 225.86 23.7109 226.342 23.7109C227.449 23.7109 228.484 23.9193 229.447 24.3359C230.424 24.7526 231.27 25.3255 231.987 26.0547C232.716 26.7708 233.289 27.6172 233.705 28.5938C234.122 29.5703 234.33 30.612 234.33 31.7188V45ZM244.486 18.3984C244.486 18.8932 244.388 19.3555 244.193 19.7852C244.01 20.2148 243.756 20.5924 243.431 20.918C243.105 21.2305 242.721 21.4844 242.279 21.6797C241.849 21.862 241.387 21.9531 240.892 21.9531C240.397 21.9531 239.928 21.862 239.486 21.6797C239.056 21.4844 238.678 21.2305 238.353 20.918C238.04 20.5924 237.786 20.2148 237.591 19.7852C237.409 19.3555 237.318 18.8932 237.318 18.3984C237.318 17.9167 237.409 17.4609 237.591 17.0312C237.786 16.5885 238.04 16.2109 238.353 15.8984C238.678 15.5729 239.056 15.319 239.486 15.1367C239.928 14.9414 240.397 14.8438 240.892 14.8438C241.387 14.8438 241.849 14.9414 242.279 15.1367C242.721 15.319 243.105 15.5729 243.431 15.8984C243.756 16.2109 244.01 16.5885 244.193 17.0312C244.388 17.4609 244.486 17.9167 244.486 18.3984ZM243.568 45H238.197V24.082H243.568V45Z" fill="#D5D9C9"/>
<path d="M35.5 22.5H17.5V2.5H57.5V42.5H38V25V22.5H35.5Z" stroke="#D5D9C9" stroke-width="5"/>
<path d="M2.5 32.5H27.5V57.5H13.6667H2.5V46.6667V32.5Z" stroke="#D5D9C9" stroke-width="5"/>
</svg>
